#!OML:ASF E:/inclinewalkrobotboard/Project1/Captureday1/Session1/subject1.ASF
:FULLY-SPECIFIED
:DEGREES
44
root 0 0 0 -3.0398702770850043 -4.260182701367818 0.18390348204258294
lowerback 7.090359642458511 1.5560636617838994 -1.6955385179433726
upperback 0.536465748880329 1.9530987381827698 -0.5101495303436772
thorax -3.4529478943164467 0.9848013076710253 0.27683325118822444
lowerneck -10.186115465308342 -4.765689881236236 -5.665091405072195
upperneck 22.2944041740704 -7.12458350295916 6.273479617637035
head 8.855791031115691 -3.216168482195401 2.281987639714728
rclavicle -5.31930522653176E-15 3.0928038074448805E-15
rhumerus -3.0151204073898814 3.1784796378474542 -75.5095966145123
rradius 63.30757306785834
rwrist -18.69721278257384
rhand -41.342282343264245 13.264850638983622
rfingers 7.125019999999941
rthumb -14.195322665093144 -16.1715830585703
lclavicle -6.1685903237379735E-15 2.931657653222373E-15
lhumerus -33.27720753408301 13.392620145316872 73.29027723770048
lradius 23.6510900183606
lwrist -6.400358612052328
lhand -25.367531195636843 21.704632071960674
lfingers 7.125019999999966
lthumb 1.1611071471216319 51.660362860941454
rfemur -15.167779370963146 4.489840630138518 28.89200660064275
rtibia 52.18379349004615
rfoot 1.8372945602361437 -3.549287743055375
rtoes 15.245145013536526
lfemur -22.360785534749862 1.7761709943684245 -15.606048638082644
ltibia 53.21699950409388
lfoot 0.9248467655748875 -9.013293092874354
ltoes -3.545378553857629
45
root 0 0 0 -3.3241348051426725 -4.650228274538713 0.17583293622538748
lowerback 6.717880487514123 1.5513354180274437 -1.5478473305607192
upperback 0.29620755371017765 1.9522117689821439 -0.6290804941066199
thorax -3.4953852537442955 0.9781101218767754 0.07570616913874939
lowerneck -9.89043658810395 -4.45617995178054 -5.316622768603803
upperneck 21.21218743714814 -6.733492409665842 6.223048984900781
head 8.396989922650574 -3.0179860625477435 2.2920151961463295
rclavicle -7.333676290399581E-15 3.669159165326609E-15
rhumerus -5.745417440663655 5.892835269875374 -76.09454011624351
rradius 65.4973453068193
rwrist -20.547996889849628
rhand -40.53534628357098 11.418784972091204
rfingers 7.125019999999939
rthumb -13.425667471279072 -18.07018024825424
lclavicle -7.966785561260604E-15 3.2474003262066513E-15
lhumerus -32.875278314855294 13.17549410381757 73.92212517979075
lradius 23.799970885272035
lwrist -6.202539303354215
lhand -25.148836268679656 21.747497551875938
lfingers 7.125019999999966
lthumb 1.3702647593198305 51.69975416670996
rfemur -17.910492166558452 3.361236200722132 28.23136780380066
rtibia 56.3610143484482
rfoot -1.2540421577438383 -4.790183669657585
rtoes 15.356050656606849
lfemur -22.679305480195353 2.67062008437229 -15.979386836562592
ltibia 56.89844750221859
lfoot -0.5260233407883934 -8.286199785241278
ltoes -2.801737180535297
46
root 0 0 0 -3.137378346291607 -4.582612162053947 0.261695271837829
lowerback 6.697894197806805 1.506485734162248 -1.8845553744677495
upperback 0.7291802604611077 1.8890872314772384 -0.35496395665507197
thorax -3.031435954399634 0.9632869125494035 0.5745531312069027
lowerneck -9.860036594176867 -4.76335384892494 -5.528880148266886
upperneck 26.38206567503835 -7.435043786091889 5.5771729388614455
head 10.048908385949247 -3.348928858153848 1.9481919475279206
rclavicle -5.654297526434523E-15 2.631654722254418E-15
rhumerus -9.126165641536293 6.542697934827781 -78.0777643630563
rradius 60.40191208945381
rwrist -21.888519774884767
rhand -40.55280096956136 12.33348174073655
rfingers 7.125019999999939
rthumb -13.461844623789158 -17.17093734199947
lclavicle -7.287329935434861E-15 2.3720494746376715E-15
lhumerus -31.894413733420237 12.53709742331387 75.54666898024858
lradius 24.275994327751434
lwrist -5.54415146732712
lhand -24.72701127861933 21.792400461987203
lfingers 7.125019999999962
lthumb 1.7773471336243247 51.73812611402285
rfemur -19.53127875380723 3.5511735555139996 30.313158109222208
rtibia 55.5572822499495
rfoot -6.563940103234685 -6.350405673320055
rtoes 12.790748848127622
lfemur -23.845940893133847 2.9319893731310707 -16.41656565876391
ltibia 55.864674524061755
lfoot -2.2507663423687863 -7.602364383029096
ltoes -2.488007214872547
47
root 0 0 0 -2.8453958991058954 -4.394800305920483 0.3379885306028037
lowerback 6.90906048974486 1.4643316802796862 -2.2098064321969955
upperback 1.1817252211256073 1.829725162321925 -0.11545822214482881
thorax -2.6741413998400185 0.9476812445389383 1.0226072242964444
lowerneck -9.856962455242154 -5.145325944152651 -5.862708172948051
upperneck 30.158607602394273 -8.13505323961274 5.270999231023862
head 11.306442896854682 -3.6854310745867127 1.7478855319888071
rclavicle -3.823906010303764E-15 1.7938611856256362E-15
rhumerus -9.969360910407374 5.516962471294108 -79.14646465853394
rradius 55.824033219854684
rwrist -21.965632369773214
rhand -41.03343432818204 13.68945969615895
rfingers 7.125019999999942
rthumb -13.93445911162351 -15.79273878689725
lclavicle -6.507130207897726E-15 1.5793484615971974E-15
lhumerus -31.010716056368544 11.761059139370888 77.0842260891991
lradius 24.636465882612317
lwrist -5.0419333866946605
lhand -24.103535776763827 21.973142669181847
lfingers 7.125019999999957
lthumb 2.377756350371947 51.91135565688546
rfemur -19.76742367877029 4.86984136465036 32.181766549158034
rtibia 49.184589952617856
rfoot -9.929776039534687 -7.486230533275731
rtoes 10.663118084614506
lfemur -24.35518364161981 3.005948325922123 -16.558147818136398
ltibia 54.75686820615058
lfoot -3.080029305664274 -7.4164448609534706
ltoes -2.6082849789738702
